<?xml version="1.0" encoding="UTF-8"?>
<svg id="_メイン" data-name="メイン" xmlns="http://www.w3.org/2000/svg" viewBox="0 0 256 143">
  <defs>
    <style>
      .cls-1 {
        fill: #595757;
      }
    </style>
  </defs>
  <path class="cls-1" d="M79.35,16.23c1.74-.21,3.74.5,5.02,1.7l19.78,23.64c2.17,3.41,1.2,6.44-1.77,8.86L31.66,109.7c-3.17,2-5.89,1.34-8.35-1.26-6.82-7.17-12.8-16.03-19.51-23.39-1.45-2.42-.99-5.4.85-7.44L77.4,16.82c.58-.23,1.33-.52,1.95-.6ZM79.84,37.06l-1.57-.33-54.74,45.82-.11,1.4,4.92,6c.56.53,1.55.53,2.19.12l53.83-45.18c.5-.5.5-1.41.23-2.04l-4.76-5.77Z"/>
  <path class="cls-1" d="M181.15,2.26c.71-.12,1.48-.09,2.19-.03,9.75.89,20.32,4.28,30.17,5.37,2.14.75,3.98,2.58,4.23,4.91-4.91,31.35-10.9,62.56-16.29,93.84-.54,2.5-2.71,4.11-5.16,4.49l-32.04-5.48c-2.42-.79-3.72-2.89-4.1-5.32L176.47,6.97c.48-2.28,2.34-4.31,4.68-4.71ZM191.3,19.76c-1.36.23-1.4,1.91-1.63,2.96-4.77,21.84-7.11,44.76-11.75,66.69-.03.99-.26,2.02.82,2.47,1.99.84,5.53.65,7.69,1.43.82-.03,1.53-.85,1.61-1.64l12.22-69.04c-.01-.75-.32-1.24-1.01-1.52-.64-.25-7.45-1.43-7.94-1.35Z"/>
  <path class="cls-1" d="M136.97,3.53c2.06-.35,3.16.2,4.9,1.08,8.72,4.42,17.17,10.44,25.87,15,4.48,3.99,1.54,7.66-.7,11.71-14.55,26.24-30.33,51.88-45.23,77.91-1.44,1.21-3.25,1.91-5.15,1.58-9.88-4.85-19.25-10.89-28.86-16.33-1.63-1.5-2.37-3.54-1.99-5.76,15.33-27.84,31.74-55.14,47.46-82.78.76-1.11,2.37-2.17,3.7-2.4ZM114.63,90.48l35.5-61.61-.66-1.65c-2-.63-5.01-3.43-6.84-3.83-.5-.11-1.01.08-1.39.41l-35.61,62.02c.17.4.27.9.62,1.19s6.05,3.58,6.41,3.68c.62.18,1.45.21,1.97-.21Z"/>
  <path class="cls-1" d="M253.06,110.86h-18.79V22.89c0-.26-.89-1.14-1.14-1.14h-10.03V6.01h26.53c1.28,0,3.43,2.67,3.43,3.94v100.92Z"/>
  <path class="cls-1" d="M107.59,128.13v11.17h-11.42v-11.17h11.42ZM104.54,130.16h-5.33v7.11h5.33v-7.11Z"/>
  <path class="cls-1" d="M241,132.95l.64-2.28-3.01-.04-.27-1.72,8.46-2.07.65,2.55-2.23.56c.03.95-.9,2.32-.17,3h4.19v1.78h-5.08l-1.81,5.81-2.27-.37.78-5.43h-4.57v-1.78h4.7Z"/>
  <path class="cls-1" d="M171.31,133.84l-.52-.27-3.68,1.61-1.12-1.95,10.27-6.57,1.92,2.86-5.35,3.32,1.78.12c.08,2.64-.04,5.3-.8,7.84l-2.5.03v-6.98Z"/>
  <g>
    <path class="cls-1" d="M27.62,132.19l-2.29-.15v-1.89s2.29,0,2.29,0v-2.8s3.05,0,3.05,0v2.79s6.85,0,6.85,0c-.04,1.74-.64,3.6-1.76,4.95l-2.19-.36.15-2.55h-3.05v5.33l5.68-.47c.77.26.29,2.32.42,3.01h-9.14v-7.87Z"/>
    <polygon class="cls-1" points="36.5 127.37 37.6 127.14 38.53 128.26 37.39 129.14 36.5 127.37"/>
    <polygon class="cls-1" points="36.76 128.89 35.24 129.39 34.74 128.03 35.62 127.38 36.76 128.89"/>
  </g>
</svg>