<?xml version="1.0" encoding="UTF-8"?>
<svg id="_メイン" data-name="メイン" xmlns="http://www.w3.org/2000/svg" viewBox="0 0 256 303">
  <defs>
    <style>
      .cls-1 {
        fill: #595757;
      }

      .cls-2 {
        fill: #fff;
      }
    </style>
  </defs>
  <circle id="_楕円形_1" data-name="楕円形 1" class="cls-1" cx="128" cy="151.5" r="128"/>
  <path class="cls-2" d="M205.86,106.99c-.65-3.29-2.12-6.39-4.26-9-.43-.55-.89-1.04-1.39-1.53-3.81-3.83-9.1-6.02-14.53-6.02h-115.38c-5.49,0-10.65,2.14-14.53,6.02-.49.49-.95.98-1.4,1.55-2.13,2.6-3.59,5.7-4.23,8.99-.27,1.29-.4,2.63-.4,3.99v81.04c0,2.82.57,5.56,1.71,8.17.98,2.32,2.47,4.51,4.31,6.35.46.46.92.89,1.42,1.3,3.68,3.05,8.34,4.72,13.12,4.72h115.38c4.81,0,9.46-1.68,13.13-4.76.49-.4.94-.81,1.4-1.27,1.78-1.78,3.19-3.82,4.21-6.07l.13-.32c1.11-2.56,1.68-5.3,1.68-8.14v-81.04c0-1.34-.13-2.69-.38-4ZM60.4,103.55c.29-.43.66-.86,1.14-1.34,2.35-2.35,5.47-3.64,8.77-3.64h115.38c3.34,0,6.45,1.29,8.78,3.65.4.41.78.86,1.12,1.31l.88,1.19-61.59,53.67c-1.9,1.66-4.34,2.58-6.88,2.58s-4.96-.91-6.88-2.58l-61.52-53.66.8-1.17ZM57.93,192.73c-.03-.22-.04-.47-.04-.72v-79.36l47.79,41.69-47.31,41.25-.44-2.87ZM191.85,202.8c-1.85,1.07-3.98,1.63-6.16,1.63h-115.38c-2.18,0-4.31-.57-6.16-1.63l-1.93-1.12,48.88-42.6,5.36,4.66c3.21,2.79,7.31,4.33,11.54,4.33s8.35-1.54,11.56-4.33l5.36-4.66,48.87,42.6-1.93,1.12ZM198.1,192.02c0,.25,0,.49-.04.7l-.42,2.89-47.33-41.24,47.79-41.69v79.34Z"/>
</svg>