<?xml version="1.0" encoding="UTF-8"?>
<svg id="_メイン" data-name="メイン" xmlns="http://www.w3.org/2000/svg" viewBox="0 0 256 303">
  <defs>
    <style>
      .cls-1 {
        fill: #fff;
      }

      .cls-2 {
        fill: #4e84c2;
      }
    </style>
  </defs>
  <circle id="_楕円形_1" data-name="楕円形 1" class="cls-2" cx="128" cy="151.5" r="128"/>
  <g>
    <path class="cls-1" d="M102.16,210.15s.24-.24.53-.53l55.68-55.68c.29-.29.55-.55.58-.58l.58-.58,29.5-29.5s0-.01,0-.02l-32.93-32.93s-.01,0-.02,0l-29.5,29.5-.58.58s-.29.29-.58.58l-56.2,56.2s0,0,0,0l-14.41,47.33s0,.02.02.02l46.63-14.19c.39-.12.71-.22.71-.22ZM65.31,214.04l7.19-23.64s.02-.01.02,0l16.44,16.44s0,.02,0,.02l-23.64,7.19s-.02,0-.02-.02Z"/>
    <path class="cls-1" d="M198.45,108.16c3.66-3.66,3.66-9.65,0-13.31l-13.66-13.66c-3.66-3.66-9.65-3.66-13.31,0l-6.82,6.82s0,.01,0,.02l26.96,26.96s.01,0,.02,0l6.82-6.82Z"/>
  </g>
</svg>