<?xml version="1.0" encoding="UTF-8"?>
<svg id="_メイン" data-name="メイン" xmlns="http://www.w3.org/2000/svg" viewBox="0 0 256 303">
  <defs>
    <style>
      .cls-1 {
        fill: #595757;
      }
    </style>
  </defs>
  <path class="cls-1" d="M112.14,138.37c.57-.07,1.22.16,1.64.56l6.45,7.7c.71,1.11.39,2.1-.58,2.89l-23.05,19.32c-1.03.65-1.92.44-2.72-.41-2.22-2.34-4.17-5.22-6.36-7.62-.47-.79-.32-1.76.28-2.43l23.71-19.81c.19-.07.43-.17.63-.19ZM112.31,145.15l-.51-.11-17.84,14.93-.03.46,1.6,1.95c.18.17.51.17.71.04l17.54-14.73c.16-.16.16-.46.08-.67l-1.55-1.88Z"/>
  <path class="cls-1" d="M145.32,133.81c.23-.04.48-.03.72,0,3.18.29,6.62,1.39,9.83,1.75.7.24,1.3.84,1.38,1.6-1.6,10.22-3.55,20.39-5.31,30.58-.18.82-.88,1.34-1.68,1.46l-10.44-1.79c-.79-.26-1.21-.94-1.34-1.73l5.31-30.33c.16-.74.76-1.4,1.53-1.54ZM148.63,139.52c-.44.07-.46.62-.53.96-1.56,7.12-2.32,14.59-3.83,21.74-.01.32-.08.66.27.81.65.27,1.8.21,2.51.47.27,0,.5-.28.53-.54l3.98-22.5c0-.24-.1-.41-.33-.5-.21-.08-2.43-.47-2.59-.44Z"/>
  <path class="cls-1" d="M130.92,134.23c.67-.12,1.03.06,1.6.35,2.84,1.44,5.59,3.4,8.43,4.89,1.46,1.3.5,2.5-.23,3.81-4.74,8.55-9.88,16.91-14.74,25.39-.47.39-1.06.62-1.68.51-3.22-1.58-6.27-3.55-9.4-5.32-.53-.49-.77-1.15-.65-1.88,4.99-9.07,10.34-17.97,15.47-26.98.25-.36.77-.71,1.2-.78ZM123.64,162.56l11.57-20.08-.21-.54c-.65-.21-1.63-1.12-2.23-1.25-.16-.04-.33.03-.45.13l-11.61,20.21c.05.13.09.29.2.39s1.97,1.17,2.09,1.2c.2.06.47.07.64-.07Z"/>
  <path class="cls-1" d="M168.76,169.21h-6.12v-28.67c0-.08-.29-.37-.37-.37h-3.27v-5.13h8.65c.42,0,1.12.87,1.12,1.28v32.89Z"/>
</svg>