<?xml version="1.0" encoding="UTF-8"?>
<svg id="_メイン" data-name="メイン" xmlns="http://www.w3.org/2000/svg" viewBox="0 0 256 303">
  <defs>
    <style>
      .cls-1 {
        fill: #fff;
      }

      .cls-2 {
        fill: #10502d;
      }
    </style>
  </defs>
  <circle id="_楕円形_1" data-name="楕円形 1" class="cls-2" cx="128" cy="151.5" r="128"/>
  <g>
    <path class="cls-1" d="M174.91,94.36c-4.41-8.38-11.31-15.36-19.86-20.43-8.55-5.04-18.87-8.12-30.06-8.12-13.8-.03-25.27,3.56-33.93,8.54-8.69,4.96-12.44,10.74-12.44,10.74-1.46,1.27-2.28,3.11-2.25,5.04.04,1.93.93,3.74,2.43,4.95l12.03,9.63c2.45,1.96,5.96,1.89,8.33-.17,0,0,1.48-2.67,6.11-5.32,4.66-2.63,10.69-4.74,19.72-4.77,7.87-.02,14.74,2.92,19.42,6.93,2.33,1.99,4.07,4.22,5.13,6.25,1.07,2.05,1.47,3.85,1.46,5.21-.02,4.61-.92,7.62-2.21,10.19-.99,1.92-2.27,3.62-3.93,5.27-2.47,2.47-5.82,4.76-9.58,6.85-3.76,2.12-7.82,3.99-11.92,6.25-4.68,2.59-9.63,6.31-13.29,11.9-1.82,2.76-3.25,5.92-4.16,9.25-.92,3.34-1.33,6.83-1.33,10.4v6.93c0,3.59,2.91,6.5,6.5,6.5h15.65c3.59,0,6.5-2.91,6.5-6.5v-6.93c0-1.37.16-2.26.31-2.82.26-.84.4-1.05.83-1.56.43-.49,1.3-1.23,2.91-2.12,2.35-1.32,6.12-3.1,10.4-5.41,6.4-3.5,14.18-8.25,20.74-16.09,3.26-3.91,6.15-8.62,8.14-14.05,2.01-5.43,3.09-11.53,3.09-18.06,0-6.62-1.8-12.91-4.73-18.49Z"/>
    <path class="cls-1" d="M118.9,201.86c-9.76,0-17.67,7.91-17.67,17.67s7.91,17.66,17.67,17.66,17.66-7.91,17.66-17.66c0-9.76-7.91-17.67-17.66-17.67Z"/>
  </g>
</svg>