<?xml version="1.0" encoding="UTF-8"?>
<svg id="_メイン" data-name="メイン" xmlns="http://www.w3.org/2000/svg" viewBox="0 0 256 303">
  <defs>
    <style>
      .cls-1 {
        fill: #fff;
      }

      .cls-2 {
        fill: #10502d;
      }
    </style>
  </defs>
  <circle id="_楕円形_1" data-name="楕円形 1" class="cls-2" cx="128" cy="151.5" r="128"/>
  <g>
    <path class="cls-1" d="M189.21,162.22c11.06,0,20.02-8.96,20.02-20.02s-8.97-20.02-20.02-20.02-20.02,8.97-20.02,20.02c0,11.06,8.97,20.02,20.02,20.02Z"/>
    <path class="cls-1" d="M214.85,181.52c-.89-5.36-5.32-12.86-8.68-16.22-.44-.44-2.42-.55-2.95-.22-4.08,2.51-8.87,3.98-14.01,3.98s-9.93-1.48-14.01-3.98c-.54-.33-2.51-.23-2.95.22-.94.94-1.96,2.19-2.96,3.63,2.7,5.08,4.84,10.48,5.61,15.13.77,4.66.52,9.07-.73,13.09,4.43,1.6,9.75,2.31,15.03,2.31,13.76,0,27.84-4.77,25.64-17.95Z"/>
    <path class="cls-1" d="M127.49,153.78c17.92,0,32.45-14.53,32.45-32.45s-14.53-32.44-32.45-32.44-32.44,14.53-32.44,32.44c0,17.92,14.52,32.45,32.44,32.45Z"/>
    <path class="cls-1" d="M154.96,158.75c-.7-.7-3.9-.88-4.77-.34-6.62,4.07-14.38,6.45-22.71,6.45s-16.09-2.38-22.7-6.45c-.87-.54-4.07-.36-4.77.34-5.45,5.44-12.63,17.61-14.08,26.29-3.56,21.37,19.26,29.08,41.55,29.08s45.12-7.72,41.55-29.08c-1.44-8.68-8.63-20.85-14.08-26.29Z"/>
    <path class="cls-1" d="M66.79,162.22c11.06,0,20.02-8.96,20.02-20.02s-8.97-20.02-20.02-20.02-20.02,8.97-20.02,20.02c0,11.06,8.97,20.02,20.02,20.02Z"/>
    <path class="cls-1" d="M80.07,184.06c.82-4.88,3.14-10.63,6.04-15.95-.81-1.11-1.62-2.07-2.37-2.82-.44-.44-2.41-.55-2.95-.22-4.08,2.51-8.87,3.98-14.01,3.98s-9.93-1.48-14.01-3.98c-.53-.33-2.51-.23-2.95.22-3.36,3.35-7.78,10.86-8.68,16.22-2.2,13.18,11.88,17.95,25.64,17.95,4.91,0,9.87-.6,14.1-1.99-1.33-4.1-1.62-8.62-.82-13.42Z"/>
  </g>
</svg>